<svg xmlns:inkscape="http://www.inkscape.org/namespaces/inkscape" xmlns:sodipodi="http://sodipodi.sourceforge.net/DTD/sodipodi-0.dtd" xmlns="http://www.w3.org/2000/svg" xmlns:svg="http://www.w3.org/2000/svg" version="1.1" viewBox="0 0 237.0275 337.478975" x="0px" y="0px"><g transform="translate(-215.98626,-29)"><path style="" d="m 330.5,297.11182 c -1.65,-1.01996 -20.325,-11.87438 -41.5,-24.12091 -21.175,-12.24654 -40.975,-23.71619 -44,-25.48811 -3.025,-1.77192 -10.79059,-6.31323 -17.25687,-10.09179 L 215.98626,230.5409 216.24313,162.58255 216.5,94.624197 228,88.244073 c 6.325,-3.509067 15.325,-8.559434 20,-11.223037 4.675,-2.663602 11.2,-6.317108 14.5,-8.118902 3.3,-1.801794 20.58922,-11.516871 38.42049,-21.589061 C 318.75177,37.240883 333.74005,29 334.22778,29 c 0.48774,0 11.09852,5.707174 23.57951,12.682608 12.48099,6.975435 30.11771,16.823769 39.19271,21.885188 9.075,5.061419 25.275,14.17489 36,20.252158 l 19.5,11.049578 0.25687,67.850998 0.25688,67.851 -8.75688,5.04071 c -4.81628,2.77238 -17.30687,10.01453 -27.75687,16.09365 -22.43696,13.05236 -59.19973,34.39807 -72.24132,41.94578 -5.08272,2.94158 -9.58272,5.34075 -10,5.33148 -0.41727,-0.009 -2.10868,-0.85136 -3.75868,-1.87133 z m -2.5,-30.6432 c 0,-10.76293 0.45988,-14.62646 -0.46595,-14.89798 -0.6875,-0.20163 -6.30905,-1.10429 -11.53405,-2.00592 -5.225,-0.90163 -20.75,-3.59909 -34.5,-5.99436 -13.75,-2.39527 -25.07925,-4.28674 -25.1761,-4.20326 -0.0969,0.0835 4.62814,2.91393 10.5,6.2899 5.87185,3.37598 16.3011,9.41247 23.1761,13.41443 25.55516,14.87575 37.50689,21.79732 37.75,21.86203 0.1375,0.0366 0.25,-6.47258 0.25,-14.46484 z m 19,11.01069 c 1.925,-1.18882 5.525,-3.30372 8,-4.69978 2.475,-1.39607 12.825,-7.39222 23,-13.32478 10.175,-5.93257 22.19413,-12.83022 26.70918,-15.32811 4.51504,-2.49789 8.08134,-4.66945 7.9251,-4.82569 -0.15623,-0.15624 -6.10036,0.79817 -13.20917,2.12091 -23.58904,4.38922 -55.07713,9.80215 -57.27068,9.80215 -2.12092,0 -1.15443,0.0655 -1.15443,14.83501 0,11.77447 0.27264,14.89791 1.25,14.32039 0.6875,-0.40624 2.825,-1.71128 4.75,-2.9001 z m -25,-39.94889 c 0,-0.25827 -0.85317,-1.94577 -1.89594,-3.75 C 302.46318,203.25763 297,193.70089 297,193.36447 c 0,-0.22232 -1.04933,-2.08277 -2.33185,-4.13434 -1.28251,-2.05157 -3.70523,-6.20513 -5.38382,-9.23013 -1.6786,-3.025 -4.8402,-8.65 -7.0258,-12.5 -2.18559,-3.85 -6.00814,-10.6 -8.49454,-15 -7.46339,-13.20742 -8.24104,-14.48709 -8.80783,-14.49368 -0.29911,-0.003 -4.51491,10.00618 -9.36844,22.24368 -4.85353,12.2375 -12.3713,31.17923 -16.70616,42.09274 -4.33486,10.9135 -7.88156,20.026 -7.88156,20.25 0,0.22399 1.2713,0.40726 2.82511,0.40726 1.55381,0 7.74131,0.88412 13.75,1.9647 6.00869,1.08059 22.84989,3.9992 37.42489,6.48581 14.575,2.48662 28.525,4.9282 31,5.42574 5.92799,1.19168 6,1.19953 6,0.65417 z m 55.5,-5.05964 c 14.85,-2.54371 34.425,-5.86672 43.5,-7.38446 9.075,-1.51774 16.38985,-3.17056 16.25522,-3.67293 C 436.86338,219.95124 418.00433,172.1488 414.99897,165 c -1.50294,-3.575 -4.48004,-11.10687 -6.61579,-16.73748 -2.13575,-5.63062 -4.1264,-10.24312 -4.42367,-10.25 -0.50122,-0.0116 -56.01003,96.84251 -56.82782,99.1556 -0.2112,0.59737 0.42866,0.80412 1.5,0.48468 1.02757,-0.3064 14.01831,-2.63831 28.86831,-5.18202 z M 337.80939,227.75 c 1.6259,-2.8875 14.93392,-26.2492 29.57339,-51.91489 C 382.02225,150.16942 394,129.01942 394,128.83511 394,128.6508 367.225,128.5 334.5,128.5 c -32.725,0 -59.5,0.30083 -59.5,0.66852 0,0.36768 2.7,5.24185 6,10.83148 3.3,5.58963 6,10.36024 6,10.60135 0,0.24112 1.04933,2.11695 2.33185,4.16852 1.28251,2.05157 3.69287,6.20513 5.35635,9.23013 2.96652,5.39456 11.89867,21.13367 19.29545,34 2.05524,3.575 5.89728,10.325 8.53787,15 6.82895,12.09027 11.56589,20 11.97749,20 0.19482,0 1.68449,-2.3625 3.31038,-5.25 z M 238.27844,170 c 14.90588,-37.58205 17.20391,-43.48382 17.21284,-44.20578 0.008,-0.64862 -22.39434,-14.43605 -25.21491,-15.51841 -0.96234,-0.36928 -1.29252,8.64446 -1.50463,41.0762 -0.14946,22.85211 0.01,41.234 0.35379,40.84864 0.34404,-0.38536 4.46285,-10.37565 9.15291,-22.20065 z M 439.5649,110.23157 c -0.86006,-0.86007 -26.66595,15.06297 -26.20146,16.16711 1.20495,2.86427 20.16272,51.07763 22.96294,58.3993 l 3.17362,8.29798 0.26122,-41.20342 c 0.14367,-22.66189 0.0553,-41.40933 -0.19632,-41.66097 z m -48.85906,4.62256 C 390.04263,113.9489 384.57394,107.1989 378.55321,99.854129 372.53247,92.509358 364.00629,82 359.60613,76.5 355.20598,71 351.34541,66.275 351.02709,66 c -0.31832,-0.275 -2.13986,-2.525 -4.04786,-5 -1.908,-2.475 -4.66796,-5.85 -6.13325,-7.5 -1.46529,-1.65 -3.56633,-4.125 -4.66899,-5.5 -1.10266,-1.375 -2.17351,-2.275 -2.37967,-2 -1.95543,2.608321 -12.58471,15.803611 -13.56245,16.836559 -0.69582,0.735108 -2.49326,2.985108 -3.99431,5 -1.50105,2.014893 -2.98213,3.888441 -3.29129,4.163441 -0.7921,0.704576 -35.94925,44.00632 -35.94936,44.27748 -5e-5,0.12239 25.85508,0.22252 57.45584,0.22252 53.1569,0 57.3657,-0.12315 56.25009,-1.64587 z M 275.79391,97.75 c 7.21932,-8.9375 17.44397,-21.5375 22.72145,-28 5.27749,-6.4625 9.39175,-11.75 9.14281,-11.75 -0.24894,0 -8.93637,4.773682 -19.3054,10.608182 -10.36902,5.8345 -26.61292,14.911849 -36.09755,20.171885 -9.48463,5.260037 -17.03414,9.774343 -16.77669,10.031792 0.7652,0.765207 25.97002,15.125271 26.60541,15.158031 0.32116,0.0166 6.49065,-7.28239 13.70997,-16.21989 z m 142.06843,10.09013 c 5.85071,-3.38793 11.91359,-6.81506 13.47305,-7.61584 l 2.83539,-1.455972 -4.83539,-2.701619 C 411.58863,86.151267 369.10006,62.18913 363,58.655749 c -3.35145,-1.941286 -3.43237,-1.945171 -1.90661,-0.09154 0.87636,1.064684 4.69357,5.76079 8.48269,10.43579 3.78911,4.675 7.13372,8.725 7.43245,9 0.29873,0.275 2.09489,2.525 3.99147,5 1.89658,2.475 3.72384,4.725 4.06059,5 0.33675,0.275 4.39116,5.225 9.00979,11 C 403.85306,111.23197 406.20077,114 406.79268,114 c 0.2376,0 5.21895,-2.77194 11.06966,-6.15987 z" fill="#000000"/></g><text x="0" y="284.98318" fill="#000000" font-size="5px" font-weight="bold" font-family="'Helvetica Neue', Helvetica, Arial-Unicode, Arial, Sans-serif">Created by Lucas Rathgeb</text><text x="0" y="289.98318" fill="#000000" font-size="5px" font-weight="bold" font-family="'Helvetica Neue', Helvetica, Arial-Unicode, Arial, Sans-serif">from the Noun Project</text></svg>