<svg xmlns:inkscape="http://www.inkscape.org/namespaces/inkscape" xmlns:sodipodi="http://sodipodi.sourceforge.net/DTD/sodipodi-0.dtd" xmlns="http://www.w3.org/2000/svg" xmlns:svg="http://www.w3.org/2000/svg" version="1.1" viewBox="0 0 286.49475 357.5" x="0px" y="0px"><g transform="translate(-513.50524,-21)"><path style="" d="M 585,235.5 513.50524,164 585,92.5 C 624.32212,53.175 656.94712,21 657.50002,21 659.01146,21 800,162.30024 800,163.81502 800,165.21163 658.71001,307 657.31831,307 656.86535,307 624.32212,274.825 585,235.5 Z m 66,21.69245 V 231.3849 l -3.96858,-1.75094 c -2.18272,-0.96301 -10.84522,-5.04528 -19.25,-9.07172 -17.2242,-8.2515 -28.06801,-13.35938 -44.78142,-21.09388 -6.325,-2.92703 -15.2268,-7.15484 -19.78177,-9.39512 C 558.66325,187.83296 554.61499,186 554.22209,186 553.82919,186 575.32925,207.825 602,234.5 628.67075,261.175 650.60651,283 650.74613,283 650.88576,283 651,271.3866 651,257.19245 Z m 110,-71.3786 c 0,-0.26599 -5.0625,1.96388 -11.25,4.95526 -6.1875,2.99139 -17.775,8.49339 -25.75,12.22667 -7.975,3.73328 -20.35,9.56763 -27.5,12.96524 -7.15,3.3976 -17.3875,8.25217 -22.75,10.78792 L 664,231.3594 v 25.94329 25.94329 l 48.5,-48.47426 C 739.175,208.11088 761,186.07984 761,185.81385 Z M 651,130.76443 V 44.528857 L 637.97206,57.514428 C 589.04842,106.27896 534.46173,161.15058 534.26138,161.76648 c -0.13125,0.40343 2.56875,2.03381 6,3.62306 3.43124,1.58925 10.96362,5.12493 16.73862,7.85707 5.775,2.73214 13.875,6.54263 18,8.46775 4.125,1.92513 12.225,5.75323 18,8.50689 5.775,2.75366 16.125,7.6131 23,10.79875 6.875,3.18564 17.225,8.05619 23,10.82344 5.775,2.76724 10.8375,5.05953 11.25,5.09396 0.4125,0.0344 0.75,-38.74341 0.75,-86.17297 z M 680.59859,209.5 c 8.61721,-4.125 15.79653,-7.5 15.95404,-7.5 0.15751,0 5.61011,-2.52812 12.11688,-5.61804 6.50677,-3.08993 15.88049,-7.52924 20.83049,-9.86514 4.95,-2.3359 12.825,-6.06366 17.5,-8.28391 4.675,-2.22025 14.2375,-6.74878 21.25,-10.0634 7.0125,-3.31462 12.75,-6.17268 12.75,-6.35125 C 781,161.63969 754.675,135.17147 722.5,103 L 664,44.50641 v 86.2468 C 664,178.18894 664.20946,217 664.46546,217 c 0.25601,0 7.51591,-3.375 16.13313,-7.5 z" fill="#000000"/></g><text x="0" y="301" fill="#000000" font-size="5px" font-weight="bold" font-family="'Helvetica Neue', Helvetica, Arial-Unicode, Arial, Sans-serif">Created by Lucas Rathgeb</text><text x="0" y="306" fill="#000000" font-size="5px" font-weight="bold" font-family="'Helvetica Neue', Helvetica, Arial-Unicode, Arial, Sans-serif">from the Noun Project</text></svg>