<svg xmlns="http://www.w3.org/2000/svg" xmlns:xlink="http://www.w3.org/1999/xlink" version="1.1" x="0px" y="0px" viewBox="0 0 100 125" style="enable-background:new 0 0 100 100;" xml:space="preserve"><style type="text/css">
	.st0{fill:none;}
</style><path d="M98.56,66.05L53.19,6.44c-0.63-0.83-1.58-1.3-2.62-1.31c-0.01,0-0.01,0-0.02,0c-1.03,0-1.98,0.46-2.61,1.28L1.5,66.01  c-0.6,0.77-0.83,1.75-0.63,2.7c0.19,0.95,0.79,1.76,1.64,2.23l46.45,25.78c0.22,0.12,0.45,0.2,0.68,0.27  c0.23,0.27,0.56,0.45,0.94,0.45c0.39,0,0.72-0.19,0.95-0.46c0.23-0.07,0.46-0.15,0.68-0.27l45.37-25.77  c0.83-0.47,1.42-1.28,1.61-2.22C99.37,67.78,99.14,66.81,98.56,66.05z M49.32,94.07L3.72,68.76c-0.28-0.16-0.37-0.41-0.4-0.55  c-0.03-0.14-0.04-0.41,0.16-0.66L49.32,8.7V94.07z M96.72,68.22c-0.03,0.14-0.12,0.39-0.4,0.54L51.82,94.04V8.77l44.75,58.79  C96.77,67.81,96.75,68.08,96.72,68.22z"/><text x="0" y="115" fill="#000000" font-size="5px" font-weight="bold" font-family="'Helvetica Neue', Helvetica, Arial-Unicode, Arial, Sans-serif">Created by Michelle Lukezic</text><text x="0" y="120" fill="#000000" font-size="5px" font-weight="bold" font-family="'Helvetica Neue', Helvetica, Arial-Unicode, Arial, Sans-serif">from the Noun Project</text></svg>